<?xml version="1.0" standalone="no"?>
<!DOCTYPE svg PUBLIC "-//W3C//DTD SVG 20010904//EN"
 "http://www.w3.org/TR/2001/REC-SVG-20010904/DTD/svg10.dtd">
<svg version="1.0" xmlns="http://www.w3.org/2000/svg"
 width="1080.000000pt" height="1079.000000pt" viewBox="0 0 1080.000000 1079.000000"
 preserveAspectRatio="xMidYMid meet">

<g transform="translate(0.000000,1079.000000) scale(0.100000,-0.100000)"
fill="#000000" stroke="none">
<path d="M7740 8855 c-247 -50 -468 -174 -683 -384 -288 -280 -594 -745 -1041
-1581 l-45 -85 -138 -12 c-165 -13 -481 -41 -575 -50 l-67 -6 46 94 c79 163
133 288 214 491 111 281 136 362 218 723 19 83 -9 129 -75 123 -53 -4 -69 -33
-99 -176 -14 -68 -37 -162 -51 -210 -46 -159 -205 -503 -322 -697 -63 -104
-242 -385 -246 -385 -33 0 -412 -62 -526 -86 -490 -103 -816 -193 -1280 -353
-508 -175 -816 -345 -1030 -567 -121 -126 -203 -254 -269 -420 -48 -123 -67
-333 -41 -459 48 -235 238 -423 487 -482 95 -22 326 -24 418 -4 257 57 444
136 719 306 118 72 358 244 421 302 11 10 52 45 90 78 378 325 762 790 1106
1338 l95 152 130 17 c214 27 645 70 651 65 5 -6 -115 -235 -222 -422 -222
-390 -288 -505 -505 -875 -276 -471 -533 -922 -725 -1275 -50 -92 -260 -469
-343 -615 -245 -434 -500 -836 -842 -1325 -81 -116 -157 -229 -169 -252 -63
-124 25 -267 164 -267 101 0 108 7 396 441 356 536 583 901 1236 1993 538 898
715 1221 1038 1884 83 170 200 408 260 530 l110 221 170 12 c816 59 1339 161
1785 348 263 110 432 217 586 370 151 150 215 261 250 434 38 189 -18 391
-163 593 -173 240 -471 425 -763 474 -104 17 -282 17 -370 -1z m314 -206 c207
-28 421 -127 560 -258 69 -65 166 -207 195 -286 35 -92 46 -186 32 -262 -32
-174 -136 -311 -341 -448 -274 -184 -814 -349 -1553 -474 -194 -33 -576 -85
-582 -79 -7 7 238 456 452 831 282 493 446 710 630 835 185 125 386 172 607
141z m-3370 -2226 c-85 -132 -436 -569 -624 -778 -120 -133 -391 -405 -512
-513 -258 -231 -574 -427 -808 -502 -156 -50 -247 -63 -395 -57 -176 7 -255
34 -355 124 -72 65 -102 131 -108 243 -5 108 9 177 57 277 58 117 133 217 250
331 307 301 655 494 1176 651 264 79 612 150 1090 220 77 11 151 22 165 24 14
3 38 5 54 6 l28 1 -18 -27z"/>
</g>
</svg>
